<svg width="40" height="40" viewBox="0 0 40 40" fill="none" xmlns="http://www.w3.org/2000/svg">
<path d="M25.2813 15H28C28.6903 15 29.25 14.4403 29.25 13.75C29.25 13.0597 28.6903 12.5 28 12.5H25.2813C22.3692 12.5 20 14.8692 20 17.7813V20H18.25C17.5597 20 17 20.5597 17 21.25C17 21.9403 17.5597 22.5 18.25 22.5H20V33C20 33.6903 20.5597 34.25 21.25 34.25C21.9403 34.25 22.5 33.6903 22.5 33V22.5H27.5C28.1903 22.5 28.75 21.9403 28.75 21.25C28.75 20.5597 28.1903 20 27.5 20H22.5V17.7813C22.5 16.2477 23.7477 15 25.2813 15Z" fill="#51777C"/>
<path d="M27.5 35H12.5C8.3645 35 5 31.6355 5 27.5V12.5C5 8.3645 8.3645 5 12.5 5H27.5C31.6355 5 35 8.3645 35 12.5V27.5C35 31.6355 31.6355 35 27.5 35ZM12.5 7.5C9.743 7.5 7.5 9.743 7.5 12.5V27.5C7.5 30.257 9.743 32.5 12.5 32.5H27.5C30.257 32.5 32.5 30.257 32.5 27.5V12.5C32.5 9.743 30.257 7.5 27.5 7.5H12.5Z" fill="#068FA4"/>
</svg>
