<svg width="41" height="40" viewBox="0 0 41 40" fill="none" xmlns="http://www.w3.org/2000/svg">
<path d="M27.8334 35H12.8334C8.69787 35 5.33337 31.6355 5.33337 27.5V12.5C5.33337 8.3645 8.69787 5 12.8334 5H27.8334C31.9689 5 35.3334 8.3645 35.3334 12.5V27.5C35.3334 31.6355 31.9689 35 27.8334 35ZM12.8334 7.5C10.0764 7.5 7.83337 9.743 7.83337 12.5V27.5C7.83337 30.257 10.0764 32.5 12.8334 32.5H27.8334C30.5904 32.5 32.8334 30.257 32.8334 27.5V12.5C32.8334 9.743 30.5904 7.5 27.8334 7.5H12.8334Z" fill="#078A9D"/>
<path d="M20.3334 27.25C16.3357 27.25 13.0834 23.9977 13.0834 20C13.0834 16.0023 16.3357 12.75 20.3334 12.75C24.331 12.75 27.5834 16.0023 27.5834 20C27.5834 23.9977 24.331 27.25 20.3334 27.25ZM20.3334 15.136C17.6514 15.136 15.4694 17.318 15.4694 20C15.4694 22.682 17.6514 24.864 20.3334 24.864C23.0154 24.864 25.1974 22.682 25.1974 20C25.1974 17.318 23.0154 15.136 20.3334 15.136Z" fill="#0496AC"/>
<path d="M28.5834 13.5C29.5499 13.5 30.3334 12.7165 30.3334 11.75C30.3334 10.7835 29.5499 10 28.5834 10C27.6169 10 26.8334 10.7835 26.8334 11.75C26.8334 12.7165 27.6169 13.5 28.5834 13.5Z" fill="#0496AC"/>
</svg>
