<svg width="41" height="40" viewBox="0 0 41 40" fill="none" xmlns="http://www.w3.org/2000/svg">
<path d="M28.1667 35H13.1667C9.03125 35 5.66675 31.6355 5.66675 27.5V12.5C5.66675 8.3645 9.03125 5 13.1667 5H28.1667C32.3022 5 35.6667 8.3645 35.6667 12.5V27.5C35.6667 31.6355 32.3022 35 28.1667 35ZM13.1667 7.5C10.4097 7.5 8.16675 9.743 8.16675 12.5V27.5C8.16675 30.257 10.4097 32.5 13.1667 32.5H28.1667C30.9237 32.5 33.1667 30.257 33.1667 27.5V12.5C33.1667 9.743 30.9237 7.5 28.1667 7.5H13.1667Z" fill="#08889C"/>
<path d="M15.6667 17.387V26.25C15.6667 26.9403 15.1071 27.5 14.4167 27.5C13.7264 27.5 13.1667 26.9403 13.1667 26.25V17.387C13.1667 16.6967 13.7264 16.137 14.4167 16.137C15.1071 16.137 15.6667 16.6967 15.6667 17.387ZM14.4167 12C13.7264 12 13.1667 12.5597 13.1667 13.25V13.5C13.1667 14.1903 13.7264 14.75 14.4167 14.75C15.1071 14.75 15.6667 14.1903 15.6667 13.5V13.25C15.6667 12.5597 15.1071 12 14.4167 12ZM24.7966 16.3045C23.5469 16.059 22.0046 16.3853 20.6609 17.443C20.6294 16.7807 20.0869 16.2522 19.4169 16.2522C18.7266 16.2522 18.1669 16.8118 18.1669 17.5022V26.25C18.1669 26.9403 18.7266 27.5 19.4169 27.5C20.1072 27.5 20.6669 26.9403 20.6669 26.25V21.5868C20.6814 21.558 20.6996 21.5323 20.7121 21.502C21.5697 19.4042 23.1734 18.5333 24.3146 18.7577C25.1739 18.9265 25.6669 19.7052 25.6669 20.8938V26.25C25.6669 26.9403 26.2266 27.5 26.9169 27.5C27.6072 27.5 28.1669 26.9403 28.1669 26.25V20.8938C28.1667 18.5082 26.8439 16.7068 24.7966 16.3045Z" fill="#4F747A"/>
</svg>
