<svg width="40" height="40" viewBox="0 0 40 40" fill="none" xmlns="http://www.w3.org/2000/svg">
<path d="M19.0978 22.9348L9.77516 33.7386C9.52816 34.0218 9.1815 34.1668 8.83283 34.1668C8.54116 34.1668 8.24833 34.0653 8.0115 33.8587C7.49133 33.4047 7.43766 32.6151 7.89166 32.095L17.511 20.9513L19.0978 22.9348ZM22.4892 19.0488L32.1085 7.90515C32.5625 7.38498 32.5088 6.59548 31.9887 6.14148C31.4687 5.68748 30.6787 5.74115 30.225 6.26131L20.9023 17.0651L22.4892 19.0488Z" fill="#597D80"/>
<path d="M33.4166 34.1666H26.9166C26.5368 34.1666 26.1778 33.9939 25.9406 33.6974L5.60728 7.86409C5.30711 7.48892 5.24861 6.97475 5.45678 6.54175C5.66494 6.10875 6.10278 5.83325 6.58328 5.83325H13.0833C13.4631 5.83325 13.8221 6.00592 14.0593 6.30242L34.3926 32.1358C34.6928 32.5109 34.7513 33.0251 34.5431 33.4581C34.3349 33.8911 33.8971 34.1666 33.4166 34.1666ZM27.5174 31.6666H30.8158L12.4824 8.33325H9.18411L27.5174 31.6666Z" fill="#0591A6"/>
</svg>
